<svg width="72" height="75" viewBox="0 0 72 75" fill="none" xmlns="http://www.w3.org/2000/svg">
<path d="M57.4203 40.4375C57.5403 39.5 57.6003 38.5313 57.6003 37.5C57.6003 36.5 57.5403 35.5 57.3903 34.5625L63.4803 29.625C64.0203 29.1875 64.1703 28.3438 63.8403 27.7188L58.0803 17.3438C57.7203 16.6562 56.9703 16.4375 56.3103 16.6562L49.1403 19.6562C47.6403 18.4688 46.0503 17.4687 44.2803 16.7187L43.2003 8.78125C43.0803 8.03125 42.4803 7.5 41.7603 7.5H30.2403C29.5203 7.5 28.9503 8.03125 28.8303 8.78125L27.7503 16.7187C25.9803 17.4687 24.3603 18.5 22.8903 19.6562L15.7203 16.6562C15.0603 16.4062 14.3103 16.6562 13.9503 17.3438L8.22033 27.7188C7.86033 28.375 7.98033 29.1875 8.58033 29.625L14.6703 34.5625C14.5203 35.5 14.4003 36.5313 14.4003 37.5C14.4003 38.4688 14.4603 39.5 14.6103 40.4375L8.52033 45.375C7.98033 45.8125 7.83033 46.6562 8.16033 47.2812L13.9203 57.6563C14.2803 58.3438 15.0303 58.5625 15.6903 58.3438L22.8603 55.3438C24.3603 56.5312 25.9503 57.5312 27.7203 58.2812L28.8003 66.2188C28.9503 66.9688 29.5203 67.5 30.2403 67.5H41.7603C42.4803 67.5 43.0803 66.9688 43.1703 66.2188L44.2503 58.2812C46.0203 57.5312 47.6403 56.5312 49.1103 55.3438L56.2803 58.3438C56.9403 58.5938 57.6903 58.3438 58.0503 57.6563L63.8103 47.2812C64.1703 46.5938 64.0203 45.8125 63.4503 45.375L57.4203 40.4375ZM36.0003 48.75C30.0603 48.75 25.2003 43.6875 25.2003 37.5C25.2003 31.3125 30.0603 26.25 36.0003 26.25C41.9403 26.25 46.8003 31.3125 46.8003 37.5C46.8003 43.6875 41.9403 48.75 36.0003 48.75Z" fill="black"/>
</svg>
